<svg xmlns="http://www.w3.org/2000/svg" viewBox="213.42799377441406 408.6878662109375 173.1448516845703 147.9830322265625"><path d="M331.69 421.858a.073.073 0 0 0-.067.045c-.029.076.027.145.108.145l.02-.001c.046-.006.067-.045.05-.095-.02-.06-.068-.094-.11-.094zm-2.684 21.128c.01.003.032.028.064.08.047.078.08.167.068.2-.005.007-.01.01-.016.01-.017 0-.039-.027-.06-.078-.056-.128-.076-.207-.06-.212zm4.22 29.603h-.002.001zm0 0c.023.004.132.07.242.155.256.2.318.317.252.487-.044.122-.207.208-.344.208a.225.225 0 0 1-.138-.04c-.178-.132-.187-.784-.015-.81zm8.856-17.392c.186 0 .633.233 1.068.553.75.56 1.187 1.065 1.538 1.798.358.732.448 1.063.362 1.314-.086.25-.267.493-.441.594-.15.087-.56.599-.782.966a3.75 3.75 0 0 0-.238.557c-.062.2-.216.486-.366.688a6.132 6.132 0 0 0-.82 1.538 4.611 4.611 0 0 1-.36.776c-.119.203-.308.54-.415.751-.113.208-.31.483-.444.61-.133.132-.325.371-.427.54-.103.165-.299.456-.44.646-.136.19-.387.571-.557.854a8.763 8.763 0 0 1-.671.936c-.203.24-.393.489-.415.56a.871.871 0 0 1-.22.268c-.093.075-.242.287-.326.474-.194.421-.16.365-.53.908-.231.34-.409.616-.546.849h-.003l-.356.466h.003c-.111.222-.24.434-.387.645h.004q-.018.252-.064.305-.028.057-.158.057l-.047-.002h-.004a9.41 9.41 0 0 1-.101.126c-.4.499-1.148 2.36-1.777 4.291l-.217-.002h-.004a4.9 4.9 0 0 0-.181-.482 5.56 5.56 0 0 1-.352-1.045 4.365 4.365 0 0 0-.13-.425c-.121-.332-.206-1.168-.137-1.349.027-.07.118-.135.253-.173.335-.102.711-.36.775-.545.098-.278-.107-.688-.493-.974a2.163 2.163 0 0 1-.337-.31c-.187-.23-.181-.656.013-1.311.151-.504 1.059-2.48 1.146-2.491.025-.004.084-.11.135-.231.132-.34.788-1.67.871-1.785a.36.36 0 0 0 .071-.129c-.01-.076.534-1.032.807-1.406.157-.224.324-.495.377-.606.095-.221.33-.486.587-.666a.394.394 0 0 1 .218-.079c.116 0 .22.077.312.232.154.26.53.59.816.703a.753.753 0 0 0 .279.068.63.63 0 0 0 .178-.03c.317-.083.547-.264.617-.482.071-.212.268-.337.587-.358.51-.037.689-.097.822-.27.128-.168.148-.452.038-.5-.028-.011-.077-.104-.105-.199a2.192 2.192 0 0 0-.21-.403 5.716 5.716 0 0 1-.304-.537c-.192-.385-.282-.514-.514-.738-.108-.105-.172-.2-.15-.23.022-.028.28-.088.57-.137.625-.104.82-.202 1.01-.524l.133-.22-.126-.166a1.367 1.367 0 0 0-.339-.282 9.618 9.618 0 0 1-.478-.311 3.726 3.726 0 0 0-.398-.26c-.318-.16-.88-.553-1.076-.745-.175-.18-.216-.252-.238-.458-.035-.307.1-.501.522-.729.16-.084.335-.18.388-.207.054-.028.252-.138.437-.235.477-.245.965-.528.99-.573.025-.045.682-.46.733-.467a.178.178 0 0 1 .024-.001zm-36.326 43.596c.21 0 .314.352.314 1.047 0 .772-.369 1.233-.924 1.233-.158 0-.33-.037-.514-.115-.383-.128-.351-.351.256-1.246.384-.615.673-.92.868-.92zm2.805 1.654c.32 0 .735.16.959.383.543.544.479 1.534-.096 1.534-.256 0-.67-.447-.958-.958-.48-.895-.448-.959.095-.959zm-60.393-81.115a50.786 50.786 0 0 1-2.06.261c-1.374.16-1.917.447-3.003 1.47-1.501 1.469-3.706 4.472-4.792 6.548-1.118 2.173-.99 6.166.703 25.876.351 4.121.767 8.019.926 8.657.16.607.895 1.917 1.598 2.875 3.035 4.153 3.003 4.09 2.62 4.92-.224.511-.8.895-1.662 1.118-1.725.447-2.364 1.502-2.108 3.29.223 1.406-.416 3.131-2.524 6.773-.415.703-.767 1.533-.767 1.853-.032.67-.958 2.524-1.405 2.811-.16.128-.831.32-1.47.415-.639.096-1.82.703-2.683 1.31-1.278.959-1.502 1.278-1.502 2.204 0 1.135-.145 1.374-3.591 1.374-.825 0-1.839-.013-3.085-.032-.985-.013-1.774-.023-2.41-.023-2.35 0-2.598.127-2.925.63-.32.48-.448 2.364-.448 7.667l-.063 7.028 23.48.096 18.919.051h-.003q.587.075 1.048.1.397.025.758.025.764 0 1.37-.116h.002l1.386.004.702-.863c.402-.512.546-.839.274-1.044h-.002q.505-1.339.326-3.652h-.003c.027-.85.044-1.875.044-2.939v-4.6l-1.086-1.214-1.086-1.182-3.035-.032c-3.354-.064-3.865-.223-3.578-1.118.224-.639-1.182-2.204-2.715-2.97-1.182-.64-4.664-1.15-7.635-1.15h-2.652l.16-1.055c.288-1.757 1.054-4.888 1.31-5.303.084-.127.163-.191.248-.191.109 0 .23.104.39.319.288.383.96.543 2.588.575l.448.013-1.004-60.78zm131.62 77.773c.202 0 .257 1.432.331 6.057.032 3.802.224 6.837.384 6.997.191.191.32 1.277.32 2.46 0 1.405.383 3.641 1.15 6.548 2.044 8.019 2.619 20.062 1.085 23.129-.127.255-.479 1.054-.766 1.757-.703 1.693-2.78 3.897-3.93 4.185-.479.127-1.022.32-1.214.447-.532.4-2.063.82-2.762.82-.14 0-.246-.016-.304-.053-.224-.128.16-.703 1.054-1.566.798-.766 1.98-2.396 2.62-3.673 1.086-2.077 1.181-2.492 1.054-4.121-.288-3.067-.575-3.898-1.821-5.144-1.15-1.15-1.693-1.373-4.792-1.853l-1.438-.223-.191-3.514c-.096-1.949-.416-4.313-.671-5.271-.895-3.035-1.31-5.335-1.118-6.102.24-.898 1.572-2.385 2.081-2.385a.19.19 0 0 1 .091.021c.16.128.288.48.288.799 0 .511 2.044 2.556 2.587 2.556.096 0 .671-.32 1.278-.735.99-.671 1.118-.895 1.31-2.78.127-1.15.383-2.938.575-3.993.191-1.054.479-2.715.639-3.673.16-.959.447-2.556.607-3.514.16-.959.447-2.684.607-3.834.191-1.15.51-2.524.734-3.035.085-.19.154-.307.212-.307zm-113.97 10.37-50.633.032-.863.767c-.83.703-.894.958-.894 3.13v2.396l1.15.543c.734.352 2.044.543 3.737.575l2.62.064.16 20.765.16 20.764h5.43l.096-20.636c.064-19.327.096-20.67.639-20.797.196-.056 8.278-.081 17.352-.081 11.62 0 24.868.041 25.263.113.16 0 .288 9.328.32 20.7l.095 20.702h5.431l.096-20.573c.032-12.044.192-20.67.351-20.797.16-.096 9.009-.16 19.679-.16 10.67 0 19.455-.096 19.519-.223.095-.16.798-.543 1.533-.895 1.533-.67 1.789-1.086 1.789-2.843 0-.958-.224-1.406-1.214-2.364l-1.214-1.182zm80.727-98.787a.577.577 0 0 0-.3.078c-.168.1-.291.31-.582 1.018-.106.259-.235.5-.283.532-.047.037-.274.124-.51.197-.312.097-.464.127-.722.127l-.108-.001-.093-.001c-.635 0-1.45.122-1.728.263-.463.233-.718.626-.945 1.456-.07.264-.083.474-.052.943.02.35.014.653-.018.725-.032.072-.155.208-.277.307-.126.105-.221.211-.218.237.004.03-.107.129-.242.214-.34.211-.43.322-.543.644a2.613 2.613 0 0 1-.326.563c-.285.36-.621.96-.698 1.241-.049.184-.124.635-.211 1.349-.013.1 0 .39.038.644.041.307.044.566.005.78-.029.175-.069.42-.085.536-.044.333-.097.366-.818.493a5.25 5.25 0 0 1-1.009.097c-.094 0-.195-.002-.31-.005a8.396 8.396 0 0 0-.307-.006c-1.151 0-2.69.205-3.095.42a.356.356 0 0 1-.16.043c-.052.001-.156.124-.257.304a1.261 1.261 0 0 1-.387.452c-.454.299-.697.622-1.43 1.91a1.672 1.672 0 0 0-.137.382c-.118.52-.234 1.175-.223 1.262.025.184-.11 1.205-.194 1.47-.049.147-.1.388-.117.536-.045.443-.187.82-.355.93-.08.058-.298.14-.48.179-.435.089-.558.183-.755.578-.09.179-.206.366-.262.42-.153.14-.288.449-.626 1.43-.274.794-.316.987-.344 1.448-.013.293-.037.697-.058.892-.055.641-.023 1.235.168 3.03.103.973.227 2.183.274 2.697.082.847.098.928.178.949.054.013.084.046.067.074-.012.027.082.384.209.788.189.604.264.776.412.954.105.122.19.26.198.317.004.048.006.071-.002.071s-.023-.02-.053-.058c-.041-.051-.075-.074-.094-.076h-.004c-.027.002-.022.054.038.135a.864.864 0 0 1 .097.185c.036.23.213.466.586.77.225.19.438.331.479.331h.001a.074.074 0 0 1 .018-.002c.032 0 .045.03.03.09-.007.053-.006.077.01.077.006 0 .016-.005.03-.015.016-.015.028-.022.035-.023h.003c.008.002.006.015-.005.04-.02.038.014.106.067.151.059.05.096.133.089.197-.008.055.007.099.035.099h.007c.124.013.11 1.546-.024 2.861-.015.158-.039.453-.043.656-.01.199-.045.604-.079.894-.034.29-.056.678-.042.858l.023.33.413.293c.35.255.456.304.736.334a4.286 4.286 0 0 0 .621.027c.262 0 .42.1.443.28.02.142-.02.636-.083 1.097-.04.27.037.563.14.563a.053.053 0 0 0 .01 0c.028 0 .116.054.207.128.084.068.19.124.234.124h.006a.04.04 0 0 1 .005 0c.096 0 .484.298.648.495.106.132.19.485.112.495-.071.01.097.533.209.669.055.065.267.172.468.24.376.126.553.248.577.39.006.047.033.09.055.097.096.024.311.313.328.435.009.072.078.24.153.375s.142.288.15.339c.015.122-.125.281-.327.36l-.31.135c-.591.286-.71.328-1.09.368-.522.064-.967.232-1.514.575-.519.324-.951.552-1.824.949-.54.243-1.103.697-1.18.941-.245.776-.267.888-.465 2.375-.05.407-.112.8-.128.875a2.378 2.378 0 0 0-.043.188c-.001.026-.038.338-.085.687-.042.349-.1.892-.125 1.212-.026.315-.072.909-.112 1.315a64.37 64.37 0 0 0-.09 1.13 5.189 5.189 0 0 1-.046.473c-.02.086-.019.169.005.467.004.09 0 .136-.018.136-.006 0-.014-.005-.023-.016-.004-.005-.008-.008-.01-.009h-.004c-.014.006-.004.084.025.21.035.158.039.241.009.241-.003 0-.005 0-.008-.002a.032.032 0 0 0-.017-.004c-.025 0-.052.028-.064.067-.008.053.008.098.035.105.085.014.086.134.008.217-.075.08-.069.259.007.259a.05.05 0 0 0 .007 0l.004-.001c.023 0 .034.023.023.049-.014.027-.036.042-.056.042l-.012-.002a.013.013 0 0 0-.006-.002c-.019 0-.029.05-.02.12.01.076-.031.31-.092.521-.107.363-.108.4-.02.705.054.174.156.473.228.66.096.258.135.472.166.863.017.283.079.675.136.87.246.872.47 1.586.538 1.707.103.184.178.787.15 1.17-.012.179.02.617.082 1.05.041.257.088.576.127.846h-.003q-.475.39-.739.918-.61 1.2-.01 3.48.59 2.287 2.46 5.956 1.131 2.254 3.51 6.347h-.003l.039.324q.058.399-.149.614-1.13.993-2.035 1.215.024.06-.887.077h.004l-.045.7-2.81-.096c-.37-.012-.71-.019-1.018-.019-1.264 0-2.016.108-2.273.339-.256.192-1.342.415-2.428.511-.276.013-.52.021-.745.021-1.469 0-2.087-.375-4.941-2.48-.607-.48-1.757-1.023-2.556-1.279-.799-.223-1.63-.575-1.821-.734-.14-.1-.504-.15-.937-.15-.26 0-.544.018-.82.054-.767.127-2.364.287-3.61.383-2.108.192-3.354.735-3.354 1.502 0 .16-.415.798-.958 1.405-.512.575-.959 1.342-.959 1.661 0 .899-.495 1.24-2.099 1.24-.392 0-.85-.02-1.383-.058-1.437-.096-3.77-.287-5.207-.383-1.47-.096-2.811-.32-3.003-.48a.345.345 0 0 0-.23-.086c-.194 0-.43.15-.696.438-.349.392-.71.593-1.188.593-.572 0-1.31-.288-2.39-.88-.918-.512-1.339-.741-1.66-.741-.261 0-.457.15-.8.421-.502.395-.833.578-1.174.578-.266 0-.538-.112-.902-.322-.199-.132-.372-.209-.564-.209-.46 0-1.029.435-2.312 1.582-1.086 1.023-1.31 1.406-1.31 2.428 0 .959.224 1.438 1.055 2.237l1.054 1.022h16.388c1.98.004 3.728.007 5.271.007 9.636 0 11.306-.1 11.884-.486.926-.607.958-1.15.128-1.917-.352-.32-.64-.703-.64-.863 0-.19.105-.28.282-.28.387 0 1.124.43 1.891 1.175 1.342 1.278 2.556 1.917 4.345 2.172.786.105 1.266.296 1.493.62q2.17-.185 3.828-.185h.096q2.535.01 3.609.485 1.014.457.798 1.475-.385 1.438-2.295 2.796-.085.059-.171.114h.003c.086.393-1.889 1.595-2.601 1.595-.288 0-1.119.543-1.885 1.182-2.907 2.524-3.898 3.29-4.153 3.29-.16 0-.735.448-1.31.96-.99.925-1.086.957-4.44.957-1.885 0-3.866.128-4.409.32-.543.16-3.13.67-5.782 1.118-8.88 1.533-11.437 2.108-13.257 3.035-1.406.735-1.981 1.373-2.875 3.258-.575 1.214-.671 1.885-.544 3.674.224 3.194.48 3.93 2.013 5.59.767.831 1.406 1.757 1.406 2.077 0 .32.32 1.214.67 2.012.384.8.863 2.237 1.119 3.195.543 2.077.607 2.236 2.332 5.846a172.26 172.26 0 0 1 2.108 4.504c.415.895.958 1.821 1.214 2.045.282.231 1.906.338 6.115.338 1.028 0 2.21-.006 3.564-.019l9.233-.096.096-2.172c.063-1.661-.064-2.428-.544-3.354-.319-.639-.798-1.917-1.022-2.78-.192-.894-.894-2.715-1.501-4.056-.894-1.985-1.148-2.912-.762-2.915h.003c.18.001.497.2.95.583.687.575.959.767 1.964.767.446 0 1.036-.038 1.87-.097a49.701 49.701 0 0 1 2.734-.055c1.775 0 3.982.042 5.955.12l5.878.223-.096 1.661c-.032.927.096 2.236.32 2.875.479 1.406 1.47 2.971 1.884 2.971.16 0 1.214.575 2.364 1.31 1.413.876 1.971 1.16 2.624 1.16.203 0 .416-.028.667-.074.67-.128 3.322-.287 5.942-.383l4.696-.128v1.757c0 2.683.16 2.747 5.718 2.747 2.587 0 4.792-.096 4.888-.191.095-.096 0-.927-.256-1.821-.53-2.044-.62-2.434.226-2.434.172 0 .383.016.637.038 1.31.096 1.341.16 1.852 1.693.745 2.336.685 2.691 3.333 2.691.648 0 1.458-.02 2.482-.04l4.6-.096.095-1.5c.128-1.726.288-1.886 2.62-2.62a45.22 45.22 0 0 0 3.45-1.342c.927-.415 1.821-.767 2.013-.767.607 0 4.76-4.217 4.76-4.824 0-.32.16-.67.319-.766.192-.096.32-.543.32-.959 0-.415.16-.862.319-.958.192-.128.32-2.46.32-5.91s-.128-5.782-.32-5.91c-.16-.096-.32-1.533-.32-3.163 0-1.597-.127-3.066-.287-3.226-.16-.192-.383-1.47-.447-2.875-.096-1.406-.32-3.418-.511-4.473a310.57 310.57 0 0 1-1.374-8.465c-.48-3.195-.351-8.913.224-10.574.607-1.661.638-5.814.095-6.293-.223-.192-.83-.384-1.373-.448-.895-.095-.959-.16-.895-1.373.064-.703.32-1.98.64-2.875.926-2.78.51-5.335-.927-5.687a1.884 1.884 0 0 0-.487-.054c-.145 0-.302.01-.468.03h.004l-4.454 2.09h.004c-.14.085-.26.141-.352.16h.003l-.451.213h.003q-.285.254-.523.412-.172.09-.267.09-.018 0-.034-.003-.09-.04-.179-.085h-.004l.049.094.106.205-.475-.473h.004q-.33-.196-.643-.449h.004l-.276-.114q-.077-.032-.176-.083-.473-.245-.459-.248l-.123-.088h-.004q-3.72-13.599-8.067-19.28-1.834-2.279-3.861-3.566h-.004l-.154-.23c-.253-.382-.508-.733-.572-.787-.064-.048-.312-.39-.558-.757-.246-.363-.541-.786-.665-.936a8.056 8.056 0 0 1-.51-.79c-.158-.286-.37-.638-.468-.78a4.023 4.023 0 0 1-.267-.485c-.052-.118-.26-.439-.463-.708a9.757 9.757 0 0 1-.496-.688c-.068-.116-.263-.334-.435-.493-.272-.25-.319-.327-.418-.642-.062-.2-.16-.425-.218-.511a.726.726 0 0 1-.125-.275c-.009-.066-.034-.136-.057-.154-.052-.04-.544-1.279-.517-1.314.002-.003.006-.004.01-.004.015 0 .038.012.057.037.02.028.123.04.25.04.218 0 .508-.036.58-.088.11-.077.146-.31.13-.745-.015-.466-.014-.575.035-.758.05-.21-.046-.498-.278-.842-.213-.31-.427-.863-.468-1.217-.017-.127.008-.448.056-.709.048-.266.076-.608.06-.762-.022-.168-.009-.305.028-.341.037-.036.05-.09.035-.125-.019-.028.003-.062.049-.068.046-.006.079-.032.076-.052-.004-.026.161-.271.368-.553.208-.277.373-.523.37-.538-.001-.015.113-.176.25-.35a7.03 7.03 0 0 0 .88-1.448c.118-.244.29-.521.386-.612.13-.126.212-.288.318-.625.075-.254.206-.562.288-.688.082-.125.2-.37.266-.54.203-.546.492-1.894.533-2.529.016-.23.053-.5.077-.592.024-.097.054-.501.058-.902.009-.402.023-.767.027-.81.02-.122-.01-1.059-.05-1.552-.122-1.549-.126-1.621-.054-1.865.043-.146.064-.419.05-.682l-.027-.433.214-.075c.323-.11.372-.252.228-.712l-.117-.369.126-.303a4.38 4.38 0 0 1 .352-.639c.66-.976 1.06-1.814 1.325-2.79.046-.162.114-.395.15-.514.127-.417.27-1.055.295-1.302.032-.348-.086-1.159-.23-1.54-.13-.347-.403-1.433-.564-2.213a10.523 10.523 0 0 0-.72-2.144c-.25-.508-.859-1.415-1.29-1.914-.51-.598-1.265-1.277-1.565-1.42-.227-.105-.946-.623-.954-.69-.067-.422-.406-1.375-.512-1.429a4.445 4.445 0 0 1-.332-.423c-.433-.584-.61-.749-.937-.749-.06 0-.126.006-.2.016a.486.486 0 0 1-.27-.037c-.117-.063-.825-.146-1.262-.15-.323-.004-.497-.064-.8-.273-.32-.218-.581-.537-.609-.746-.012-.09-.042-.164-.062-.164h-.001c-.023 0-.121-.12-.218-.272-.342-.537-.876-.882-1.387-.892h-.027c-.146 0-.237.037-.442.187-.207.15-.342.229-.524.229-.202 0-.463-.096-.946-.294-.229-.095-.41-.141-.56-.141z" style="fill:#0079b9;fill-opacity:1;stroke-linejoin:miter"/></svg>